<svg width="560" height="320" viewBox="0 0 560 320" fill="none" xmlns="http://www.w3.org/2000/svg">
  <rect width="560" height="320" rx="36" fill="url(#bg)"/>
  <circle cx="410" cy="120" r="96" fill="#FFF3C4"/>
  <circle cx="410" cy="120" r="78" fill="#F8B26A"/>
  <circle cx="360" cy="102" r="14" fill="#EF4444"/>
  <circle cx="426" cy="78" r="12" fill="#DC2626"/>
  <circle cx="454" cy="128" r="10" fill="#B91C1C"/>
  <circle cx="378" cy="146" r="11" fill="#991B1B"/>
  <circle cx="438" cy="160" r="13" fill="#EF4444"/>
  <circle cx="400" cy="96" r="7" fill="#166534"/>
  <circle cx="436" cy="100" r="8" fill="#166534"/>
  <circle cx="388" cy="164" r="8" fill="#166534"/>
  <circle cx="470" cy="110" r="7" fill="#166534"/>
  <rect x="36" y="42" width="210" height="38" rx="19" fill="#ECFDF5"/>
  <rect x="44" y="50" width="126" height="10" rx="5" fill="#10B981"/>
  <rect x="44" y="64" width="86" height="8" rx="4" fill="#86EFAC"/>
  <rect x="36" y="96" width="246" height="96" rx="24" fill="#FFFFFF"/>
  <rect x="52" y="114" width="136" height="12" rx="6" fill="#0F172A"/>
  <rect x="52" y="132" width="112" height="10" rx="5" fill="#64748B"/>
  <rect x="52" y="160" width="84" height="24" rx="12" fill="#10B981"/>
  <rect x="146" y="160" width="84" height="24" rx="12" fill="#ECFEFF"/>
  <defs>
    <linearGradient id="bg" x1="0" y1="0" x2="560" y2="320" gradientUnits="userSpaceOnUse">
      <stop stop-color="#DCFCE7"/>
      <stop offset="1" stop-color="#F1F5F9"/>
    </linearGradient>
  </defs>
</svg>
